<svg xmlns="http://www.w3.org/2000/svg" viewBox="0 0 512 512">
  <path d="M315.74 85.332c-43.068 0-76.8 71.219-76.8 162.133s33.732 162.133 76.8 162.133c43.059 0 76.8-71.219 76.8-162.133s-33.741-162.133-76.8-162.133zm4.932 245.896a8.472 8.472 0 0 1-4.924 1.57 8.546 8.546 0 0 1-6.98-3.601c-37.026-52.284-37.009-114.074.051-165.282 2.773-3.814 8.098-4.676 11.921-1.911 3.814 2.765 4.668 8.098 1.911 11.921-32.572 45.005-32.555 99.362.051 145.408a8.538 8.538 0 0 1-2.03 11.895z"/>
  <path d="M377.31 22.741C358.775 8.081 335.104 0 310.639 0H201.37c-24.465 0-48.145 8.081-66.671 22.741C96.614 52.898 51.2 117.837 51.2 256s45.414 203.102 83.499 233.25C153.225 503.919 176.905 512 201.37 512h109.269c24.465 0 48.137-8.081 66.671-22.75 38.084-30.148 83.49-95.087 83.49-233.25S415.394 52.898 377.31 22.741zM366.711 475.87c-15.522 12.288-35.439 19.063-56.073 19.063h-34.807c-1.954-1.988-3.84-3.985-5.743-5.99-2.005-2.116-4.045-4.215-5.99-6.349-2.253-2.466-4.395-4.975-6.571-7.467-1.86-2.142-3.763-4.267-5.564-6.426-2.125-2.543-4.139-5.12-6.178-7.689-1.707-2.142-3.456-4.275-5.111-6.443-1.997-2.628-3.891-5.282-5.803-7.936-1.553-2.142-3.157-4.275-4.651-6.426-1.877-2.714-3.644-5.461-5.436-8.192-1.391-2.133-2.842-4.25-4.181-6.391-1.758-2.807-3.396-5.641-5.069-8.474-1.237-2.099-2.526-4.19-3.712-6.306-1.638-2.901-3.149-5.828-4.685-8.755-1.084-2.065-2.227-4.122-3.268-6.204-1.519-3.021-2.901-6.076-4.318-9.122-.922-1.997-1.911-3.977-2.79-5.982-1.399-3.166-2.662-6.357-3.942-9.54-.777-1.911-1.604-3.814-2.338-5.726-1.271-3.319-2.406-6.664-3.558-10.001-.614-1.801-1.297-3.584-1.886-5.385-1.152-3.533-2.159-7.083-3.174-10.633-.461-1.621-.998-3.234-1.434-4.864-1.024-3.814-1.911-7.646-2.79-11.477-.307-1.365-.691-2.731-.981-4.105-.905-4.224-1.664-8.465-2.389-12.698-.171-.99-.393-1.971-.546-2.961-.794-4.915-1.434-9.847-1.98-14.78-.034-.307-.094-.623-.12-.939a297.819 297.819 0 0 1 0-63.36c.026-.307.085-.623.12-.939.546-4.932 1.186-9.856 1.98-14.771.154-.99.375-1.971.546-2.961.725-4.241 1.485-8.474 2.389-12.698.29-1.374.674-2.739.981-4.105.879-3.831 1.766-7.663 2.79-11.486.435-1.621.973-3.234 1.434-4.864 1.016-3.541 2.022-7.091 3.174-10.624.589-1.801 1.271-3.584 1.886-5.385 1.152-3.336 2.287-6.682 3.558-10.001.734-1.92 1.57-3.823 2.338-5.743 1.289-3.174 2.543-6.357 3.942-9.515.887-2.022 1.877-4.011 2.807-6.016 1.408-3.038 2.79-6.084 4.301-9.105 1.041-2.074 2.185-4.13 3.268-6.195 1.536-2.927 3.046-5.854 4.685-8.764 1.186-2.108 2.475-4.198 3.712-6.298 1.673-2.833 3.311-5.666 5.069-8.474 1.34-2.142 2.79-4.258 4.181-6.391 1.792-2.731 3.558-5.478 5.436-8.192 1.493-2.159 3.098-4.284 4.651-6.434 1.911-2.645 3.806-5.308 5.803-7.927 1.655-2.167 3.405-4.301 5.111-6.443 2.039-2.569 4.053-5.146 6.178-7.689 1.801-2.159 3.703-4.292 5.564-6.426 2.176-2.5 4.318-5.001 6.571-7.467 1.946-2.133 3.985-4.233 5.99-6.349 1.903-2.005 3.789-4.011 5.743-5.99h34.807c20.634 0 40.55 6.767 56.073 19.063 35.14 27.81 77.022 88.525 77.022 219.87 0 131.344-41.881 192.067-77.022 219.877z"/>
</svg>
